<?xml version="1.0" encoding="utf-8"?>
<!-- Generator: Adobe Illustrator 16.0.3, SVG Export Plug-In . SVG Version: 6.00 Build 0)  -->
<!DOCTYPE svg PUBLIC "-//W3C//DTD SVG 1.1//EN" "http://www.w3.org/Graphics/SVG/1.1/DTD/svg11.dtd">
<svg version="1.1" id="Warstwa_1" xmlns="http://www.w3.org/2000/svg" xmlns:xlink="http://www.w3.org/1999/xlink" x="0px" y="0px"
	 width="115px" height="30px" viewBox="0 0 115 30" enable-background="new 0 0 115 30" xml:space="preserve">
<g>
	<path fill="#269FEB" d="M115,21.636c0,4.619-3.754,8.364-8.384,8.364H8.384C3.753,30,0,26.255,0,21.636V8.364
		C0,3.744,3.753,0,8.384,0h98.232C111.246,0,115,3.744,115,8.364V21.636z"/>
	<path fill="#FFFFFF" d="M12.043,21.371V6.232c0-0.134,0.089-0.223,0.223-0.223h0.89c0.134,0,0.223,0.089,0.223,0.223v6.835h2.271
		l2.315-6.879c0.044-0.111,0.156-0.179,0.267-0.179h0.89c0.156,0,0.223,0.089,0.178,0.245l-2.404,7.035
		c1.492,0.512,2.337,1.914,2.337,3.762v4.319c0,0.134-0.089,0.223-0.223,0.223h-0.89c-0.134,0-0.223-0.089-0.223-0.223v-4.319
		c0-1.625-0.913-2.738-2.293-2.738h-2.227v7.058c0,0.134-0.089,0.223-0.223,0.223h-0.89C12.132,21.594,12.043,21.505,12.043,21.371z
		"/>
	<path fill="#FFFFFF" d="M21.617,8.147c0-0.513,0.356-0.868,0.868-0.868c0.49,0,0.868,0.355,0.868,0.868
		c0,0.467-0.378,0.868-0.868,0.868C21.974,9.016,21.617,8.637,21.617,8.147z M21.862,21.371V10.686c0-0.134,0.089-0.223,0.223-0.223
		h0.823c0.134,0,0.223,0.089,0.223,0.223v10.686c0,0.134-0.089,0.223-0.223,0.223h-0.823C21.951,21.594,21.862,21.505,21.862,21.371
		z"/>
	<path fill="#FFFFFF" d="M25.714,21.371v-7.636c0-2.004,1.335-3.495,3.317-3.495s3.317,1.491,3.317,3.495v7.636
		c0,0.134-0.089,0.223-0.223,0.223h-0.824c-0.134,0-0.223-0.089-0.223-0.223v-7.636c0-1.358-0.779-2.293-2.048-2.293
		s-2.048,0.935-2.048,2.293v7.636c0,0.134-0.089,0.223-0.222,0.223h-0.824C25.803,21.594,25.714,21.505,25.714,21.371z"/>
	<path fill="#FFFFFF" d="M41.388,6.232v12.089c0,2.004-1.358,3.495-3.406,3.495c-2.048,0-3.406-1.491-3.406-3.495v-4.586
		c0-2.004,1.358-3.495,3.406-3.495c0.868,0,1.603,0.445,2.137,1.112v-5.12c0-0.134,0.089-0.223,0.223-0.223h0.823
		C41.299,6.01,41.388,6.099,41.388,6.232z M40.119,13.735c0-1.336-0.802-2.271-2.137-2.271c-1.336,0-2.137,0.936-2.137,2.271v4.586
		c0,1.336,0.801,2.271,2.137,2.271c1.335,0,2.137-0.935,2.137-2.271V13.735z"/>
	<path fill="#FFFFFF" d="M43.526,18.299v-4.52c0-2.048,1.313-3.518,3.406-3.518c2.048,0,3.406,1.47,3.406,3.429
		c0,1.848-1.358,3.25-3.406,3.25h-2.137v1.358c0,1.336,0.801,2.271,2.137,2.271c1.247,0,2.07-0.912,2.115-2.271
		c0-0.156,0.089-0.223,0.223-0.223h0.824c0.133,0,0.223,0.089,0.223,0.223c-0.067,2.093-1.425,3.495-3.384,3.495
		C44.884,21.794,43.526,20.392,43.526,18.299z M46.933,15.717c1.335,0,2.137-0.847,2.137-2.026c0-1.291-0.802-2.204-2.137-2.204
		c-1.38,0-2.137,0.913-2.137,2.293v1.938H46.933z"/>
	<path fill="#FFFFFF" d="M52.321,21.371v-7.547c0-2.048,1.491-3.429,3.495-3.429h0.979c0.134,0,0.223,0.089,0.223,0.223v0.779
		c0,0.134-0.089,0.223-0.223,0.223h-0.979c-1.313,0-2.227,0.823-2.227,2.204v7.547c0,0.134-0.089,0.223-0.222,0.223h-0.824
		C52.41,21.594,52.321,21.505,52.321,21.371z"/>
	<path fill="#FFFFFF" d="M64.677,13.735v9.038c0,2.093-1.357,3.495-3.405,3.495c-1.981,0-3.34-1.402-3.406-3.495
		c0-0.134,0.089-0.223,0.223-0.223h0.823c0.134,0,0.223,0.067,0.223,0.223c0.066,1.425,0.869,2.271,2.138,2.271
		c1.335,0,2.138-0.847,2.138-2.271v-2.516c-0.535,0.668-1.27,1.113-2.138,1.113c-2.048,0-3.406-1.491-3.406-3.495v-4.141
		c0-2.004,1.358-3.495,3.406-3.495S64.677,11.731,64.677,13.735z M63.409,17.876v-4.141c0-1.336-0.803-2.271-2.138-2.271
		c-1.336,0-2.138,0.936-2.138,2.271v4.141c0,1.336,0.802,2.271,2.138,2.271C62.606,20.146,63.409,19.212,63.409,17.876z"/>
	<path fill="#FFFFFF" d="M66.749,18.344c0-1.759,1.357-3.206,3.384-3.206h2.159V13.69c0-1.291-0.779-2.227-2.092-2.227
		c-1.181,0-1.915,0.824-2.004,2.049c-0.022,0.155-0.09,0.223-0.223,0.223h-0.824c-0.133,0-0.223-0.089-0.223-0.223
		c0.111-1.893,1.358-3.272,3.273-3.272c2.047,0,3.361,1.491,3.361,3.45v4.653c0,1.981-1.336,3.45-3.385,3.45
		C68.106,21.794,66.749,20.325,66.749,18.344z M72.292,18.344v-1.981h-2.159c-1.313,0-2.115,0.891-2.115,1.981
		c0,1.313,0.802,2.226,2.159,2.226C71.513,20.569,72.292,19.657,72.292,18.344z"/>
	<path fill="#FFFFFF" d="M75.788,21.371v-7.547c0-2.048,1.492-3.429,3.496-3.429h0.979c0.135,0,0.223,0.089,0.223,0.223v0.779
		c0,0.134-0.088,0.223-0.223,0.223h-0.979c-1.314,0-2.227,0.823-2.227,2.204v7.547c0,0.134-0.09,0.223-0.223,0.223h-0.824
		C75.878,21.594,75.788,21.505,75.788,21.371z"/>
	<path fill="#FFFFFF" d="M86.408,20.637v0.779c0,0.133-0.089,0.223-0.223,0.223h-0.29c-1.98,0-3.139-1.381-3.139-3.74v-6.233h-1.38
		c-0.134,0-0.223-0.09-0.223-0.223v-0.757c0-0.134,0.089-0.223,0.223-0.223h1.38V7.568c0-0.134,0.09-0.223,0.223-0.223h0.824
		c0.133,0,0.223,0.089,0.223,0.223v2.895h1.893c0.133,0,0.223,0.089,0.223,0.223v0.757c0,0.133-0.09,0.223-0.223,0.223h-1.893v6.233
		c0,1.647,0.646,2.516,1.869,2.516h0.29C86.341,20.414,86.408,20.503,86.408,20.637z"/>
	<path fill="#FFFFFF" d="M87.901,18.299v-4.52c0-2.048,1.313-3.518,3.406-3.518c2.047,0,3.405,1.47,3.405,3.429
		c0,1.848-1.358,3.25-3.405,3.25H89.17v1.358c0,1.336,0.802,2.271,2.138,2.271c1.246,0,2.07-0.912,2.114-2.271
		c0-0.156,0.089-0.223,0.223-0.223h0.823c0.134,0,0.223,0.089,0.223,0.223c-0.066,2.093-1.424,3.495-3.383,3.495
		C89.259,21.794,87.901,20.392,87.901,18.299z M91.308,15.717c1.335,0,2.137-0.847,2.137-2.026c0-1.291-0.802-2.204-2.137-2.204
		c-1.381,0-2.138,0.913-2.138,2.293v1.938H91.308z"/>
	<path fill="#FFFFFF" d="M96.673,21.371v-7.636c0-2.004,1.336-3.495,3.317-3.495s3.317,1.491,3.317,3.495v7.636
		c0,0.134-0.09,0.223-0.223,0.223h-0.824c-0.133,0-0.223-0.089-0.223-0.223v-7.636c0-1.358-0.779-2.293-2.048-2.293
		s-2.048,0.935-2.048,2.293v7.636c0,0.134-0.09,0.223-0.223,0.223h-0.824C96.763,21.594,96.673,21.505,96.673,21.371z"/>
</g>
</svg>
